<svg xmlns="http://www.w3.org/2000/svg" viewBox="0 0 145.33 178.71"><defs><style>.cls-1{stroke:#000;stroke-miterlimit:10;stroke-width:8.6px;}</style></defs><g id="home_page" data-name="home page"><path class="cls-1" d="M7831.34,2872.15c-8.78,0-17.56,0-26.21,0-3.45-24.93-14.23-35.75-34.68-35.43-19.9.31-30.88,11.83-33.06,35.43H7711.2c-8.11,0-8.77.53-8.32,7.36,1.1,16.62,2.29,33.25,3.43,49.87,1.61,23.61,3.3,47.21,4.75,70.83.3,4.8,2.27,6.65,8.07,6.61,35.06-.18,70.13-.13,105.18,0,4.56,0,6.59-1.32,6.86-5.42,2.66-40.57,5.48-81.14,8.21-121.7C7839.85,2872.6,7839.33,2872.17,7831.34,2872.15Zm-74.14-24.7a26.81,26.81,0,0,1,27.7-.19c10.27,5.74,12.7,14.41,11.16,24.55h-49.8C7744.9,2861.74,7747.26,2853.17,7757.2,2847.45Zm65.91,152.05H7719.33c-2.74-39.81-5.5-79.63-8.27-119.9h18.42q-.15-.06-.15-.12h102C7828.6,2919.55,7825.87,2959.27,7823.11,2999.5Z" transform="translate(-7698.47 -2832.4)"/></g></svg>