<svg xmlns="http://www.w3.org/2000/svg" viewBox="0 0 126.23 178.11"><defs><style>.cls-1{stroke:#000;stroke-miterlimit:10;stroke-width:8px;}</style></defs><g id="home_page" data-name="home page"><path class="cls-1" d="M7823.2,2872.15c-7.59,0-15.19,0-22.67,0-3-24.93-12.3-35.75-30-35.43-17.21.31-26.71,11.83-28.59,35.43h-22.65c-7,0-7.58.53-7.19,7.36.95,16.62,2,33.25,3,49.87,1.4,23.61,2.86,47.21,4.11,70.83.26,4.8,2,6.65,7,6.61,30.32-.18,60.64-.13,90.95,0,3.94,0,5.7-1.32,5.93-5.42,2.3-40.57,4.74-81.14,7.1-121.7C7830.56,2872.6,7830.11,2872.17,7823.2,2872.15Zm-64.11-24.7c7.79-5.2,16.08-5.27,23.95-.19,8.88,5.74,11,14.41,9.65,24.55h-43.06C7748.45,2861.74,7750.49,2853.17,7759.09,2847.45Zm57,152.05h-89.74c-2.37-39.81-4.75-79.63-7.15-119.9h15.93c-.09,0-.13-.08-.13-.12h88.22Z" transform="translate(-7708.02 -2832.7)"/></g></svg>