<svg xmlns="http://www.w3.org/2000/svg" viewBox="0 0 18.61 15.83"><g id="home_page" data-name="home page"><path d="M5315.77-156.29a5.29,5.29,0,0,0-4,.87,4,4,0,0,0-.42.33,5.32,5.32,0,0,0-.48.47l-.11.14-.13-.14a5.7,5.7,0,0,0-.89-.8,5.26,5.26,0,0,0-3-1,5.34,5.34,0,0,0-1,.1,5.26,5.26,0,0,0-4.28,5.16v.13a5.41,5.41,0,0,0,1.73,4l6.57,6.11a1.53,1.53,0,0,0,2,0l.09-.07,6.47-6a5.41,5.41,0,0,0,1.73-4v-.13A5.29,5.29,0,0,0,5315.77-156.29Zm2.81,5.3a3.92,3.92,0,0,1-1.26,2.89l-6.57,6.12-6.59-6.12a4,4,0,0,1-1.26-2.89v-.13a3.81,3.81,0,0,1,3.09-3.73,3.82,3.82,0,0,1,3.55,1.2l.73.82a.72.72,0,0,0,1,0l0,0,.66-.74a3.83,3.83,0,0,1,3.56-1.21,3.81,3.81,0,0,1,3.07,3.73Z" transform="translate(-5301.44 156.38)"/></g></svg>