<svg xmlns="http://www.w3.org/2000/svg" viewBox="0 0 18.61 16.34"><g id="home_page" data-name="home page"><path d="M5355.92-154.89l-1.27,4.71a.91.91,0,0,1-.87.67h-9.6l-1-5.38h12.77m-14.57-2.42h-1.45a.77.77,0,0,0-.77.77.77.77,0,0,0,.77.77h1.45a.25.25,0,0,1,.25.2l1.65,8.65a2.29,2.29,0,0,0,2.25,1.87h9.2a.76.76,0,0,0,.77-.77.76.76,0,0,0-.77-.76h-9.2a.77.77,0,0,1-.75-.63l-.17-.91h9.2a2.29,2.29,0,0,0,2.22-1.7l1.74-6.46H5343a1.78,1.78,0,0,0-1.61-1Z" transform="translate(-5339.13 157.31)"/><path d="M5344.75-142.63a.13.13,0,0,1,.13.13.13.13,0,0,1-.13.13.13.13,0,0,1-.14-.13.13.13,0,0,1,.14-.13m0-1.4a1.53,1.53,0,0,0-1.54,1.53,1.53,1.53,0,0,0,1.54,1.53,1.53,1.53,0,0,0,1.53-1.53,1.53,1.53,0,0,0-1.53-1.53Z" transform="translate(-5339.13 157.31)"/><path d="M5353.94-142.63a.13.13,0,0,1,.13.13.13.13,0,0,1-.13.13.13.13,0,0,1-.14-.13.13.13,0,0,1,.14-.13m0-1.4a1.53,1.53,0,0,0-1.54,1.53,1.53,1.53,0,0,0,1.54,1.53,1.53,1.53,0,0,0,1.53-1.53,1.53,1.53,0,0,0-1.53-1.53Z" transform="translate(-5339.13 157.31)"/></g></svg>