<svg id="Layer_1" data-name="Layer 1" xmlns="http://www.w3.org/2000/svg" viewBox="0 0 494.08 158.14"><path d="M-448.31,163.74l-12.38,30.85h24.76Zm0,0-12.38,30.85h24.76Zm282.11-57.16H-638.06a11.11,11.11,0,0,0-11.11,11.12V253.6a11.11,11.11,0,0,0,11.11,11.12H-166.2a11.11,11.11,0,0,0,11.11-11.12V117.7A11.11,11.11,0,0,0-166.2,106.58ZM-509.72,219.75q-4.75,7.09-14.26,11.37t-23.85,4.27a87.83,87.83,0,0,1-22.95-3q-11-3-17.71-7.51l9-20.26a63.22,63.22,0,0,0,15,6.82,55.61,55.61,0,0,0,16.88,2.69,34.41,34.41,0,0,0,9.17-1,10.16,10.16,0,0,0,5-2.76,6.23,6.23,0,0,0,1.58-4.27,5.68,5.68,0,0,0-3-5,30.36,30.36,0,0,0-7.93-3.17q-4.89-1.31-10.61-2.48a105.35,105.35,0,0,1-11.64-3.1,44.86,44.86,0,0,1-10.76-5.1,24.38,24.38,0,0,1-7.78-8.27q-3-5.1-3-12.82A27.4,27.4,0,0,1-582,150.63q4.68-7,14.2-11.31t23.7-4.27a81.72,81.72,0,0,1,18.68,2.14,54.91,54.91,0,0,1,16.2,6.41l-8.27,20.12a59,59,0,0,0-13.65-5.65,51.17,51.17,0,0,0-13.09-1.79,27.36,27.36,0,0,0-9.1,1.24,10.68,10.68,0,0,0-5,3.17,6.52,6.52,0,0,0-1.52,4.13,5.78,5.78,0,0,0,3,5.17,27.44,27.44,0,0,0,7.86,3q4.81,1.18,10.68,2.42a115.77,115.77,0,0,1,11.65,3.1,46.15,46.15,0,0,1,10.68,5,24.56,24.56,0,0,1,7.93,8.13q3,5,3,12.61A27.3,27.3,0,0,1-509.72,219.75Zm89.39,13.71-7.58-18.88h-40.8l-7.58,18.88h-27.85L-461.55,137h26.88l42.73,96.48Zm109.43,0h-73.19V137h27.3v74.84h45.89Zm88.21,0H-300V137h75.53v21.23h-48.65v16.12h42.86v20.26h-42.86v17.65h50.44Zm-238-38.87h24.76l-12.38-30.85Zm12.38-30.85-12.38,30.85h24.76Zm0,0-12.38,30.85h24.76Z" transform="translate(649.17 -106.58)"/></svg>