<svg xmlns="http://www.w3.org/2000/svg" viewBox="0 0 17.58 17.6"><defs><style>.cls-1{stroke:#000;stroke-miterlimit:10;stroke-width:0.5px;}</style></defs><g id="home_page" data-name="home page"><path class="cls-1" d="M5295.06,93.21c-.52.32-1,.66-1.53.93a6.92,6.92,0,0,1-7.7-1.13,6.68,6.68,0,0,1-2.23-5.59,6.78,6.78,0,0,1,4.77-6.11,6.91,6.91,0,0,1,8.93,7.88,6.35,6.35,0,0,1-1.33,3c-.16.2-.15.3,0,.48q1.91,1.89,3.79,3.8c.24.23.46.48.69.72a.49.49,0,1,1-.69.69l-4.24-4.21C5295.38,93.49,5295.21,93.34,5295.06,93.21ZM5290.52,82a5.91,5.91,0,1,0,5.91,6A5.95,5.95,0,0,0,5290.52,82Z" transform="translate(-5283.33 -80.7)"/></g></svg>