<svg xmlns="http://www.w3.org/2000/svg" viewBox="0 0 22.77 22.75"><defs><style>.cls-1{fill:#fff;}</style></defs><g id="home_page" data-name="home page"><path class="cls-1" d="M5373.5,2853.28v-1.37l.28,0h5.94a2.79,2.79,0,0,1,2.7,1.64,3.84,3.84,0,0,1,.29,1.31c0,.87,0,1.74,0,2.61a2.86,2.86,0,0,1-2.17,2.85,3,3,0,0,1-.8.1H5363a2.82,2.82,0,0,1-2.88-2.19,3.4,3.4,0,0,1-.1-.78c0-.85,0-1.7,0-2.56a2.85,2.85,0,0,1,2.91-3c2,0,4.06,0,6.1,0l.2,0v1.37H5363a1.7,1.7,0,0,0-1.26.42,1.33,1.33,0,0,0-.4,1c0,1,0,2,0,3a1.33,1.33,0,0,0,1.3,1.37h17a1.4,1.4,0,0,0,1.38-.62,1.57,1.57,0,0,0,.23-.71c0-1,.05-2,0-3.05s-.63-1.34-1.59-1.34h-6.2Z" transform="translate(-5359.96 -2837.65)"/><path class="cls-1" d="M5370.56,2840.1c-.33.34-.65.68-1,1l-3.34,3.31c-.39.39-.69.41-1,.11a.64.64,0,0,1-.1-.86l.22-.24,5.42-5.43c.48-.47.77-.48,1.25,0l5.42,5.43c.35.34.41.58.27.89a.67.67,0,0,1-1.05.24,2.09,2.09,0,0,1-.22-.2l-4.1-4.06-.25-.23v13.67a1.84,1.84,0,0,1,0,.41.64.64,0,0,1-.65.55.65.65,0,0,1-.68-.53,1.6,1.6,0,0,1,0-.44v-13.6Z" transform="translate(-5359.96 -2837.65)"/><path class="cls-1" d="M5378.06,2857.19a1,1,0,0,1-1-1.07,1.06,1.06,0,0,1,1.06-1,1.08,1.08,0,0,1,1,1.08A1.07,1.07,0,0,1,5378.06,2857.19Z" transform="translate(-5359.96 -2837.65)"/></g></svg>