<svg xmlns="http://www.w3.org/2000/svg" viewBox="0 0 14.78 16.98"><g id="home_page" data-name="home page"><path d="M5390.22-145.12a5.75,5.75,0,0,0-4.43-2h-3.14a5.77,5.77,0,0,0-4.44,2,5.88,5.88,0,0,0-1.35,4.49h14.7A5.76,5.76,0,0,0,5390.22-145.12Zm-12.34,3.43.05-.33a4.79,4.79,0,0,1,4.72-4.1h3.14a4.79,4.79,0,0,1,4.71,4.1l0,.33Zm6.34-15.92a4.11,4.11,0,0,0-4.1,4.1,4.11,4.11,0,0,0,4.1,4.1,4.11,4.11,0,0,0,4.1-4.1A4.11,4.11,0,0,0,5384.22-157.61Zm0,7.13a3,3,0,0,1-3.05-3,3,3,0,0,1,3.05-3,3,3,0,0,1,3,3A3,3,0,0,1,5384.22-150.48Z" transform="translate(-5376.83 157.61)"/></g></svg>