<svg xmlns="http://www.w3.org/2000/svg" viewBox="0 0 360 93.57"><defs><style>.cls-1,.cls-2,.cls-8{fill:#121212;}.cls-2{font-size:30.73px;font-family:Brand;letter-spacing:0.23em;}.cls-3{letter-spacing:0.13em;}.cls-4{letter-spacing:0.23em;}.cls-5{letter-spacing:0.19em;}.cls-6{letter-spacing:0.21em;}.cls-7{letter-spacing:0.22em;}.cls-8{font-size:13.17px;font-family:Ebrima;letter-spacing:0.08em;}</style></defs><g id="home_page" data-name="home page"><polygon class="cls-1" points="71.12 0 71.12 11.45 7.85 11.45 7.85 0 13.29 0 13.29 5.72 17.34 5.72 17.34 0 21.34 0 21.34 5.72 25.39 5.72 25.39 0 29.41 0 29.41 5.72 33.45 5.72 33.45 0 37.46 0 37.46 5.72 41.51 5.72 41.51 0 45.52 0 45.52 5.72 49.56 5.72 49.56 0 53.58 0 53.58 5.72 57.62 5.72 57.62 0 61.63 0 61.63 5.72 65.68 5.72 65.68 0 71.12 0"/><polygon class="cls-1" points="19.89 14.76 7.85 26.81 7.85 14.76 19.89 14.76"/><polygon class="cls-1" points="7.85 62.89 20.09 75.14 7.85 75.14 7.85 62.89"/><polygon class="cls-1" points="71.12 14.76 71.12 29.25 56.64 14.76 71.12 14.76"/><path class="cls-1" d="M4207-352.69l-24.31,24.3,24.31,24.3,24.3-24.3Zm9.16,33.46h-5.37l-3.79,3.79-3.8-3.79h-5.37v-5.37l-3.79-3.79,3.79-3.8v-5.36h5.37l3.8-3.8,3.8,3.8h5.36v5.36l3.8,3.8-3.8,3.79Z" transform="translate(-4167.5 373.35)"/><path class="cls-1" d="M4217.81-358.58h-24.08l-18.38,18.38v23.41l18.59,18.58h23.66l21-21v-18.55Zm16,32.72-24.3,24.31L4207-299l-2.54-2.53-24.3-24.31-2.54-2.53,2.54-2.54,24.3-24.3,2.54-2.54,2.54,2.54,24.3,24.3,2.54,2.54Z" transform="translate(-4167.5 373.35)"/><polygon class="cls-1" points="56.43 75.14 71.12 60.46 71.12 75.14 56.43 75.14"/><polygon class="cls-1" points="47.34 44.95 45.04 47.26 45.04 50.51 41.78 50.51 39.48 52.81 37.18 50.51 33.93 50.51 33.93 47.25 31.63 44.95 33.93 42.65 33.93 39.4 37.18 39.4 39.48 37.09 41.79 39.4 45.04 39.4 45.04 42.65 47.34 44.95"/><path class="cls-1" d="M4229.76-279.83a6.49,6.49,0,0,1-.88.05H4175a7.49,7.49,0,0,1-7.5-7.48,7.45,7.45,0,0,1,2.2-5.3,7.45,7.45,0,0,1,5.3-2.2h53.88a6.51,6.51,0,0,1,.88.06,6.46,6.46,0,0,0-5.62,6.4v2.06A6.46,6.46,0,0,0,4229.76-279.83Z" transform="translate(-4167.5 373.35)"/><path class="cls-1" d="M4234.35-287.55a1.09,1.09,0,0,1-1.1,1.09,1.09,1.09,0,0,1-1.09-1.09,1.09,1.09,0,0,1,1.09-1.1A1.1,1.1,0,0,1,4234.35-287.55Z" transform="translate(-4167.5 373.35)"/><path class="cls-1" d="M4233.25-293.67a6.13,6.13,0,0,0-6.12,6.12,6.13,6.13,0,0,0,6.12,6.12,6.12,6.12,0,0,0,6.13-6.12A6.12,6.12,0,0,0,4233.25-293.67Zm0,8.78a2.67,2.67,0,0,1-2.66-2.66,2.67,2.67,0,0,1,2.66-2.66,2.66,2.66,0,0,1,2.67,2.66A2.66,2.66,0,0,1,4233.25-284.89Z" transform="translate(-4167.5 373.35)"/><path class="cls-1" d="M4234.35-287.55a1.09,1.09,0,0,1-1.1,1.09,1.09,1.09,0,0,1-1.09-1.09,1.09,1.09,0,0,1,1.09-1.1A1.1,1.1,0,0,1,4234.35-287.55Z" transform="translate(-4167.5 373.35)"/><path class="cls-1" d="M4234.35-287.55a1.09,1.09,0,0,1-1.1,1.09,1.09,1.09,0,0,1-1.09-1.09,1.09,1.09,0,0,1,1.09-1.1A1.1,1.1,0,0,1,4234.35-287.55Z" transform="translate(-4167.5 373.35)"/><text class="cls-2" transform="translate(102.64 46.78)">I<tspan class="cls-3" x="16.01" y="0">J</tspan><tspan class="cls-4" x="28.95" y="0">AZ </tspan><tspan class="cls-5" x="91.22" y="0">C</tspan><tspan class="cls-6" x="118.66" y="0">A</tspan><tspan class="cls-4" x="144.05" y="0">RPE</tspan><tspan class="cls-7" x="213.26" y="0">T</tspan><tspan x="234.74" y="0">S</tspan></text><text class="cls-8" transform="translate(102.64 72.78)">STEPS TO HEAVEN</text></g></svg>