<svg id="Layer_1" data-name="Layer 1" xmlns="http://www.w3.org/2000/svg" viewBox="0 0 1017.4 115.05"><defs><style>.cls-1,.cls-2,.cls-7{font-size:13px;}.cls-1,.cls-7{font-family:BellMTBold, Bell MT;}.cls-1,.cls-2,.cls-8{letter-spacing:-0.05em;}.cls-2{fill:#666;font-family:BellMT, Bell MT;}.cls-3{letter-spacing:-0.06em;}.cls-4{letter-spacing:-0.07em;}.cls-5{letter-spacing:-0.05em;}.cls-6{letter-spacing:-0.07em;}.cls-13,.cls-7{letter-spacing:-0.08em;}.cls-9{letter-spacing:-0.08em;}.cls-10{letter-spacing:-0.03em;}.cls-11{letter-spacing:-0.09em;}.cls-12{letter-spacing:-0.09em;}.cls-14{letter-spacing:-0.07em;}.cls-15{letter-spacing:-0.16em;}.cls-16{letter-spacing:-0.06em;}.cls-17{fill:none;}</style></defs><path d="M-953.24,837.78l-1,1.58a15.32,15.32,0,0,0-1.87,3.7c-.34,1.18-.6,2.39-.9,3.58a7.79,7.79,0,0,1-4.2,5.4,8.29,8.29,0,0,1-4.63.72c-.43,0-.86-.12-1.29-.2s-.58-.34-.51-.67.34-.45.73-.4c.58.08,1.16.2,1.75.23a6.69,6.69,0,0,0,7.15-5.6,20.77,20.77,0,0,1,1.37-4.7c.4-.82.89-1.61,1.33-2.41l.22-.39c-1.45,0-2.82-.12-4.19-.11a15.68,15.68,0,0,0-6.33,1.35,7.46,7.46,0,0,0-4.23,7.36,7.72,7.72,0,0,0,.64,2.39l.85-1.36a21.89,21.89,0,0,1,2.57-3.27,1.22,1.22,0,0,0,.24-.45c.28-.94.54-1.89.82-2.83a.51.51,0,0,1,.67-.37.53.53,0,0,1,.36.69c-.11.43-.24.85-.38,1.35l.27-.19a18.66,18.66,0,0,1,3.65-2.29.54.54,0,0,1,.72.13.5.5,0,0,1,0,.66.88.88,0,0,1-.35.24,18.35,18.35,0,0,0-4.86,3.47c-.21.21-.41.43-.62.65,0,0,0,.05,0,0,.89,0,1.81,0,2.72,0a6.81,6.81,0,0,1,1.26.17.53.53,0,0,1,.5.65c-.06.3-.31.45-.69.41-.69-.06-1.38-.16-2.07-.17a7.24,7.24,0,0,0-2.94.54.68.68,0,0,0-.23.18,23.23,23.23,0,0,0-3.65,7.56c-.08.29-.2.53-.53.57s-.67-.32-.55-.78a20.9,20.9,0,0,1,1.44-3.89.86.86,0,0,0,0-.85A8.49,8.49,0,0,1-966.26,839a16.7,16.7,0,0,1,6.29-1.52A39.13,39.13,0,0,1-953.24,837.78Z" transform="translate(1379.19 -817.19)"/><path d="M-984.22,836a19.49,19.49,0,0,1,7.5.15,6.93,6.93,0,0,1,3.41,1.92,5.89,5.89,0,0,1,1,6.42.64.64,0,0,0,0,.63c.3.64.58,1.28.86,1.93a.56.56,0,0,1-.29.82c-.31.11-.59,0-.74-.43a16,16,0,0,0-3.61-5.74c-.54-.54-1.14-1-1.73-1.51-.34-.29-.43-.6-.2-.88s.54-.24.88,0a16.36,16.36,0,0,1,3.85,4.11,1.29,1.29,0,0,0,.14.18,4.33,4.33,0,0,0,.19-2.27,4.92,4.92,0,0,0-3.5-4,12.44,12.44,0,0,0-4.41-.58l-1.54.08a1.25,1.25,0,0,0,.13.26,12.26,12.26,0,0,1,1.65,4.42,5,5,0,0,0,4.46,3.91,10.75,10.75,0,0,0,1.27,0c.39,0,.64.15.68.47s-.17.56-.56.61a6.14,6.14,0,0,1-6.56-3.6,11.7,11.7,0,0,1-.55-2,12.61,12.61,0,0,0-2-4.25Z" transform="translate(1379.19 -817.19)"/><text class="cls-1" transform="translate(378.53 63.41)">Built to Last</text><text class="cls-2" transform="translate(301.2 78.89)">Built to last with impecc<tspan class="cls-3" x="113.07" y="0">a</tspan><tspan class="cls-4" x="117.94" y="0">b</tspan><tspan class="cls-5" x="123.56" y="0">le </tspan><tspan class="cls-6" x="134.08" y="0">a</tspan><tspan x="138.79" y="0">ttention to detail.</tspan></text><path d="M-454.55,845.85a4.19,4.19,0,0,1-4.19,4.18,4.19,4.19,0,0,1-4.18-4.19,4.19,4.19,0,0,1,4.2-4.17A4.18,4.18,0,0,1-454.55,845.85Zm-4.18-3.21a3.21,3.21,0,0,0-3.21,3.21,3.21,3.21,0,0,0,3.21,3.2,3.2,3.2,0,0,0,3.2-3.2A3.21,3.21,0,0,0-458.73,842.64Z" transform="translate(1379.19 -817.19)"/><path d="M-465.43,844.16h-1a.13.13,0,0,1,0-.06,7.84,7.84,0,0,1,4.08-5.27,7.73,7.73,0,0,1,3-.85c.06,0,.07,0,.07-.07v-1.66a.47.47,0,0,1,.27-.45.47.47,0,0,1,.51.05.47.47,0,0,1,.2.41v4.33a.49.49,0,0,1-.71.44.47.47,0,0,1-.27-.45v-1.53c0-.09,0-.09-.09-.08a6.56,6.56,0,0,0-2.56.73,6.82,6.82,0,0,0-2.39,2,6.85,6.85,0,0,0-1.16,2.38S-465.43,844.14-465.43,844.16Z" transform="translate(1379.19 -817.19)"/><path d="M-451,847.54l0,.17a7.73,7.73,0,0,1-1.82,3.42,7.76,7.76,0,0,1-4.74,2.53l-.55.06c-.06,0-.07,0-.07.07v1.66a.48.48,0,0,1-.43.49.48.48,0,0,1-.55-.46v-4.35a.49.49,0,0,1,.46-.52.5.5,0,0,1,.52.51v1.53c0,.09,0,.09.09.08a6.8,6.8,0,0,0,2.88-.9,7,7,0,0,0,2.44-2.39,6.73,6.73,0,0,0,.78-1.83.64.64,0,0,1,0-.07Z" transform="translate(1379.19 -817.19)"/><path d="M-457,838.14l.47.12a7.79,7.79,0,0,1,3.51,2.11,7.74,7.74,0,0,1,2.13,4.33,5.61,5.61,0,0,1,.06.59c0,.06,0,.07.09.07h1.64a.49.49,0,0,1,.5.41.49.49,0,0,1-.49.57h-4.33a.49.49,0,0,1-.51-.47.49.49,0,0,1,.5-.51h1.54c.09,0,.09,0,.08-.09a6.92,6.92,0,0,0-.73-2.56,6.87,6.87,0,0,0-2-2.38,6.69,6.69,0,0,0-2.4-1.16s-.07,0-.07-.09c0-.28,0-.57,0-.86Z" transform="translate(1379.19 -817.19)"/><path d="M-460.42,853.56l-.48-.13a7.81,7.81,0,0,1-3.5-2.09,7.77,7.77,0,0,1-2.14-4.38,5,5,0,0,1-.06-.54c0-.07,0-.08-.09-.08h-1.64a.5.5,0,0,1-.5-.42.49.49,0,0,1,.47-.56H-464a.5.5,0,0,1,.52.47.49.49,0,0,1-.5.51h-1.54c-.09,0-.09,0-.09.09a6.8,6.8,0,0,0,.74,2.56,6.76,6.76,0,0,0,2,2.38,6.72,6.72,0,0,0,2.39,1.16c.05,0,.07,0,.07.09v.94Z" transform="translate(1379.19 -817.19)"/><path d="M-459.22,846.79c0-.13,0-.25,0-.38s0-.07-.08-.07H-460a.47.47,0,0,1-.47-.36.49.49,0,0,1,.23-.56,1.14,1.14,0,0,1,.25-.06h.73c.06,0,.08,0,.08-.08v-.74a.48.48,0,0,1,.42-.48.48.48,0,0,1,.54.35.77.77,0,0,1,0,.15v.72c0,.06,0,.08.07.08h.72a.48.48,0,0,1,.51.49.49.49,0,0,1-.51.49h-.72c-.06,0-.07,0-.07.07v.75a.47.47,0,0,1-.37.47.47.47,0,0,1-.55-.24.65.65,0,0,1-.06-.24C-459.23,847-459.22,846.91-459.22,846.79Z" transform="translate(1379.19 -817.19)"/><text class="cls-7" transform="translate(867.99 63.41)">P<tspan class="cls-8" x="7.35" y="0">erfect Fit Solutions</tspan></text><text class="cls-2" transform="translate(823.52 78.89)">Custom-fit solutions <tspan class="cls-3" x="98.08" y="0">f</tspan><tspan class="cls-5" x="100.91" y="0">or </tspan><tspan class="cls-9" x="113.72" y="0">y</tspan><tspan x="119.19" y="0">our </tspan><tspan class="cls-10" x="137.99" y="0">e</tspan><tspan x="143.19" y="0">xact need</tspan><tspan class="cls-11" x="187.71" y="0">s</tspan><tspan x="191.69" y="0">.</tspan></text><path d="M-1248.75,835.75a6.09,6.09,0,0,1,5.47,8.87,12.79,12.79,0,0,0-1.51,5.5,3.17,3.17,0,0,1-1.57,2.69,1,1,0,0,0-.52.88,3,3,0,0,1-.44,1,1.73,1.73,0,0,0-.24.44c-.11.74-.61.86-1.25.86s-1.14-.11-1.26-.86c0-.16-.2-.3-.28-.46a2.66,2.66,0,0,1-.41-.92,1,1,0,0,0-.55-.94,3.11,3.11,0,0,1-1.53-2.7,12.87,12.87,0,0,0-1.4-5.53A6.1,6.1,0,0,1-1248.75,835.75Zm1.46,13.75c.62,0,1.17,0,1.71,0a.53.53,0,0,0,.37-.34,15.62,15.62,0,0,1,1.64-5.07,5.54,5.54,0,0,0-1.75-6.71,5.66,5.66,0,0,0-7,.1,5.58,5.58,0,0,0-1.58,6.75,14.08,14.08,0,0,1,1.45,4.86c0,.15.18.4.29.4.63,0,1.26,0,1.92,0,0-2.21,0-4.3,0-6.4a2.53,2.53,0,0,1,.08-.78c.34-1,.7-2,1.07-3a2.75,2.75,0,0,1,.33-.45,4.58,4.58,0,0,1,.27.5,11.72,11.72,0,0,1,1.16,5.83,22.23,22.23,0,0,0,0,2.45Zm-5,.51c-.13.46,0,.61.44.61h6.09c.43,0,.55-.18.42-.61Zm2.65-7.18v6.66l.66,0c0-2.12,0-4.19,0-6.26C-1249,842.69-1249.28,842.76-1249.64,842.83Zm1.83,0c-.4-.08-.69-.12-.69.38,0,2,0,4,0,6.07,0,.06.06.12.11.21l.56,0Zm-4.18,8.31-.1.21c.22.12.43.34.65.34,1.74,0,3.48,0,5.22,0,.23,0,.46-.24.69-.37l-.09-.19Zm1.74,2.21c-.1.81,0,.95.79,1,.43,0,.87,0,1.31,0,.76,0,.9-.19.75-1h-2.85Zm-.82-1.11c.92.91,3.78.89,4.47,0Zm1.48-10h1.74c-.38-.46-.09-1.3-.92-1.25S-1249.28,841.77-1249.59,842.24Zm0,12.58c.08.86.66.63,1.08.63s.51-.26.38-.63Z" transform="translate(1379.19 -817.19)"/><text class="cls-1" transform="translate(80.87 63.41)">C<tspan class="cls-3" x="8.01" y="0">r</tspan><tspan class="cls-5" x="12.47" y="0">e</tspan><tspan class="cls-3" x="18.05" y="0">a</tspan><tspan x="23.46" y="0">t</tspan><tspan class="cls-6" x="27.82" y="0">i</tspan><tspan class="cls-12" x="30.77" y="0">v</tspan><tspan class="cls-5" x="36.05" y="0">e E</tspan><tspan class="cls-13" x="52.31" y="0">x</tspan><tspan x="58.3" y="0">cellence</tspan></text><text class="cls-2" transform="translate(22.25 78.89)">Unique designs th<tspan class="cls-14" x="85.5" y="0">a</tspan><tspan x="90.21" y="0">t stand out with originalit</tspan><tspan class="cls-15" x="209.83" y="0">y</tspan><tspan x="214.22" y="0">.</tspan></text><path d="M-720.06,848.05v-4.28c0-.1,0-.14-.13-.17l-2.3-.58a.67.67,0,0,1-.51-.73.67.67,0,0,1,.2-.42c.84-.92,1.69-1.84,2.53-2.77.1-.09.18-.2.28-.29a.8.8,0,0,1,.32-.19l2-.53,6.26-1.68,2.06-.54a3,3,0,0,1,.43-.1.62.62,0,0,1,.27,0l.94.23,8.81,2.36c.36.09.72.17,1.07.27a.73.73,0,0,1,.33.19l2.81,3.07A.67.67,0,0,1-695,843l-2.29.58c-.1,0-.12.07-.12.17v8.52a.73.73,0,0,1-.57.76l-5.34,1.47-5,1.38a1.58,1.58,0,0,1-.75,0l-8.44-2.32-1.93-.53a.73.73,0,0,1-.58-.76Zm10.82,6.78V843.18l-.1.11-1.75,2.16a.68.68,0,0,1-.78.26L-718.8,844l-.26-.07V844q0,4,0,8c0,.1.05.12.13.15l9.07,2.49Zm10.84-10.94-.11,0-7.08,1.79a.71.71,0,0,1-.8-.27l-1.75-2.16-.09-.1v11.64l.1,0,9.62-2.64c.09,0,.11-.07.11-.15v-8.12Zm-1.58-4.78v0l-8.27-2.21v2.87a.46.46,0,0,1-.35.48.49.49,0,0,1-.64-.5v-2.85l-8.26,2.21a.14.14,0,0,0,.11,0l8.39,2.21a1.14,1.14,0,0,0,.52,0l7.33-1.93Zm-7.76,3.07,0,.06,2,2.41c0,.06.08.05.14,0l2.37-.61,7-1.77.51-.13-.06-.07-2.15-2.34a.25.25,0,0,0-.3-.09l-8.53,2.25Zm-2,0-.15,0-3.36-.88-6-1.6a.14.14,0,0,0-.18.06c-.73.79-1.46,1.58-2.18,2.38,0,0,0,0-.07.08l.09,0,2.76.7,7,1.78a.16.16,0,0,0,.16-.05l1.69-2.1C-709.92,842.43-709.83,842.31-709.73,842.18Z" transform="translate(1379.19 -817.19)"/><text class="cls-1" transform="translate(619.94 63.42)">Easy Ca<tspan class="cls-16" x="40.47" y="0">r</tspan><tspan x="44.93" y="0">e Solutions</tspan></text><text class="cls-2" transform="translate(540.62 78.89)">L<tspan class="cls-3" x="7.34" y="0">o</tspan><tspan class="cls-5" x="12.89" y="0">w-maintenance solutions </tspan><tspan class="cls-3" x="132.3" y="0">f</tspan><tspan class="cls-5" x="135.14" y="0">or a hassle-free </tspan><tspan class="cls-10" x="207.39" y="0">e</tspan><tspan x="212.59" y="0">xperienc</tspan><tspan class="cls-3" x="252.76" y="0">e</tspan><tspan x="257.49" y="0">.</tspan></text><rect class="cls-17" width="1017.26" height="115.05"/></svg>