<svg id="Layer_1" data-name="Layer 1" xmlns="http://www.w3.org/2000/svg" viewBox="0 0 1017.4 115.05"><defs><style>.cls-1,.cls-2,.cls-7{font-size:13px;}.cls-1,.cls-7{font-family:BellMTBold, Bell MT;}.cls-1,.cls-2,.cls-8{letter-spacing:-0.05em;}.cls-2{fill:#666;font-family:BellMT, Bell MT;}.cls-3{letter-spacing:-0.06em;}.cls-4{letter-spacing:-0.07em;}.cls-5{letter-spacing:-0.05em;}.cls-6{letter-spacing:-0.07em;}.cls-13,.cls-7{letter-spacing:-0.08em;}.cls-9{letter-spacing:-0.08em;}.cls-10{letter-spacing:-0.03em;}.cls-11{letter-spacing:-0.09em;}.cls-12{letter-spacing:-0.09em;}.cls-14{letter-spacing:-0.07em;}.cls-15{letter-spacing:-0.16em;}.cls-16{letter-spacing:-0.06em;}.cls-17{fill:none;}</style></defs><path d="M-985.47,1326.14l-1,1.59a15,15,0,0,0-1.87,3.7c-.35,1.18-.6,2.39-.9,3.58a7.81,7.81,0,0,1-4.2,5.4,8.47,8.47,0,0,1-4.63.72c-.44,0-.86-.12-1.29-.2s-.59-.34-.52-.67.34-.46.73-.4c.59.08,1.17.2,1.76.23a6.69,6.69,0,0,0,7.15-5.61,20.19,20.19,0,0,1,1.37-4.69c.4-.83.88-1.61,1.33-2.42l.22-.38c-1.45,0-2.82-.13-4.2-.11a15.75,15.75,0,0,0-6.33,1.35,7.44,7.44,0,0,0-4.22,7.35,8,8,0,0,0,.63,2.4c.3-.48.58-.93.86-1.36a21.39,21.39,0,0,1,2.57-3.27,1.22,1.22,0,0,0,.24-.45c.27-.94.53-1.89.81-2.83a.53.53,0,0,1,.68-.38.56.56,0,0,1,.36.7c-.11.42-.24.85-.39,1.35a2.34,2.34,0,0,0,.27-.2,19.46,19.46,0,0,1,3.65-2.29.56.56,0,0,1,.73.14.5.5,0,0,1,0,.66,1.21,1.21,0,0,1-.35.24,18.13,18.13,0,0,0-4.86,3.47c-.21.21-.42.43-.62.65,0,0,0,0,0,0,.89,0,1.8,0,2.72,0a7.76,7.76,0,0,1,1.26.16.53.53,0,0,1,.49.66c-.05.3-.3.45-.68.41-.69-.06-1.38-.16-2.07-.18a7.22,7.22,0,0,0-2.94.55.6.6,0,0,0-.23.18,23.05,23.05,0,0,0-3.66,7.56c-.08.29-.19.53-.53.57s-.67-.33-.55-.78a20.94,20.94,0,0,1,1.45-3.89.84.84,0,0,0,0-.85,8.5,8.5,0,0,1,3.76-11.46,16.48,16.48,0,0,1,6.29-1.53A41.13,41.13,0,0,1-985.47,1326.14Z" transform="translate(1411.42 -1305.56)"/><path d="M-1016.45,1324.4a19.48,19.48,0,0,1,7.5.16,6.92,6.92,0,0,1,3.42,1.92,5.93,5.93,0,0,1,1,6.42.67.67,0,0,0,0,.63c.31.64.59,1.28.86,1.93a.56.56,0,0,1-.29.82c-.3.11-.59,0-.73-.44a15.93,15.93,0,0,0-3.61-5.73c-.54-.54-1.15-1-1.73-1.52-.35-.29-.43-.59-.2-.87s.54-.25.88,0a16.54,16.54,0,0,1,3.85,4.11l.13.18a4.13,4.13,0,0,0,.19-2.27,4.89,4.89,0,0,0-3.49-4,12.47,12.47,0,0,0-4.41-.58l-1.55.08.13.26a11.9,11.9,0,0,1,1.65,4.42,5,5,0,0,0,4.47,3.91,10.77,10.77,0,0,0,1.27,0c.38,0,.64.15.67.48s-.17.56-.55.61a6.15,6.15,0,0,1-6.56-3.6,11.7,11.7,0,0,1-.55-2,12.53,12.53,0,0,0-2-4.25Z" transform="translate(1411.42 -1305.56)"/><text class="cls-1" transform="translate(378.53 63.41)">Built to Last</text><text class="cls-2" transform="translate(301.2 78.89)">Built to last with impecc<tspan class="cls-3" x="113.07" y="0">a</tspan><tspan class="cls-4" x="117.94" y="0">b</tspan><tspan class="cls-5" x="123.56" y="0">le </tspan><tspan class="cls-6" x="134.08" y="0">a</tspan><tspan x="138.79" y="0">ttention to detail.</tspan></text><path d="M-486.77,1334.22a4.19,4.19,0,0,1-4.19,4.18,4.19,4.19,0,0,1-4.18-4.2,4.18,4.18,0,0,1,4.19-4.17A4.19,4.19,0,0,1-486.77,1334.22ZM-491,1331a3.21,3.21,0,0,0-3.2,3.21,3.21,3.21,0,0,0,3.2,3.2,3.21,3.21,0,0,0,3.21-3.2A3.21,3.21,0,0,0-491,1331Z" transform="translate(1411.42 -1305.56)"/><path d="M-497.66,1332.53h-1a.15.15,0,0,0,0-.06,7.83,7.83,0,0,1,4.09-5.27,7.69,7.69,0,0,1,3.05-.85c.05,0,.06,0,.06-.08v-1.65a.47.47,0,0,1,.28-.45.45.45,0,0,1,.51,0,.46.46,0,0,1,.19.41v3c0,.43,0,.86,0,1.29a.49.49,0,0,1-.71.44.47.47,0,0,1-.27-.45v-1.54c0-.08,0-.08-.09-.08a6.87,6.87,0,0,0-2.55.73,6.89,6.89,0,0,0-2.4,2,6.83,6.83,0,0,0-1.15,2.38A.64.64,0,0,0-497.66,1332.53Z" transform="translate(1411.42 -1305.56)"/><path d="M-483.25,1335.91a1,1,0,0,0,0,.17,7.81,7.81,0,0,1-1.81,3.42,7.76,7.76,0,0,1-4.75,2.53l-.55.06c-.05,0-.07,0-.07.07v1.66a.48.48,0,0,1-.42.49.49.49,0,0,1-.56-.47v-4.35a.5.5,0,0,1,.47-.51.49.49,0,0,1,.51.5V1341c0,.1,0,.1.1.09a6.94,6.94,0,0,0,2.87-.9,6.82,6.82,0,0,0,2.44-2.39,6.52,6.52,0,0,0,.79-1.84.14.14,0,0,1,0-.06Z" transform="translate(1411.42 -1305.56)"/><path d="M-489.27,1326.51l.47.12a7.74,7.74,0,0,1,3.51,2.11,7.82,7.82,0,0,1,2.14,4.32c0,.2,0,.4.06.59s0,.08.09.08h1.64a.5.5,0,0,1,.5.41.49.49,0,0,1-.49.57h-4.33a.49.49,0,0,1-.51-.47.48.48,0,0,1,.49-.51h1.54c.09,0,.1,0,.09-.09a6.92,6.92,0,0,0-.73-2.56,6.9,6.9,0,0,0-2-2.38,6.56,6.56,0,0,0-2.39-1.16c-.05,0-.07,0-.07-.09v-.94Z" transform="translate(1411.42 -1305.56)"/><path d="M-492.64,1341.93l-.49-.13a7.74,7.74,0,0,1-3.49-2.1,7.68,7.68,0,0,1-2.14-4.37,5,5,0,0,1-.06-.54c0-.07,0-.08-.1-.08h-1.63a.49.49,0,0,1-.5-.43.48.48,0,0,1,.47-.55h4.35a.49.49,0,0,1,.51.46.49.49,0,0,1-.5.52h-1.53c-.1,0-.1,0-.09.09a7,7,0,0,0,.73,2.56,7,7,0,0,0,2,2.38,7,7,0,0,0,2.4,1.16s.07,0,.07.08c0,.29,0,.58,0,.87Z" transform="translate(1411.42 -1305.56)"/><path d="M-491.45,1335.15v-.37c0-.06,0-.07-.07-.07h-.74a.49.49,0,0,1-.48-.37.49.49,0,0,1,.24-.55.51.51,0,0,1,.25-.06h.73c.06,0,.08,0,.07-.08v-.74a.49.49,0,0,1,.43-.48.47.47,0,0,1,.53.35.39.39,0,0,1,0,.15c0,.24,0,.48,0,.72,0,.06,0,.08.08.08h.72a.49.49,0,0,1,.51.49.49.49,0,0,1-.51.49h-.72c-.06,0-.08,0-.08.07,0,.25,0,.5,0,.74a.48.48,0,0,1-.37.48.48.48,0,0,1-.54-.24.5.5,0,0,1-.06-.24C-491.45,1335.4-491.45,1335.28-491.45,1335.15Z" transform="translate(1411.42 -1305.56)"/><text class="cls-7" transform="translate(867.99 63.41)">P<tspan class="cls-8" x="7.35" y="0">erfect Fit Solutions</tspan></text><text class="cls-2" transform="translate(823.52 78.89)">Custom-fit solutions <tspan class="cls-3" x="98.08" y="0">f</tspan><tspan class="cls-5" x="100.91" y="0">or </tspan><tspan class="cls-9" x="113.72" y="0">y</tspan><tspan x="119.19" y="0">our </tspan><tspan class="cls-10" x="137.99" y="0">e</tspan><tspan x="143.19" y="0">xact need</tspan><tspan class="cls-11" x="187.71" y="0">s</tspan><tspan x="191.69" y="0">.</tspan></text><path d="M-1281,1324.12a6.09,6.09,0,0,1,5.47,8.87,12.78,12.78,0,0,0-1.5,5.5,3.14,3.14,0,0,1-1.57,2.68,1,1,0,0,0-.52.89,3.09,3.09,0,0,1-.45,1c-.07.15-.21.28-.23.43-.12.75-.61.87-1.25.87s-1.14-.11-1.26-.86c0-.17-.21-.3-.29-.47a2.51,2.51,0,0,1-.4-.91,1,1,0,0,0-.56-.94,3.1,3.1,0,0,1-1.52-2.7,13,13,0,0,0-1.4-5.53A6.1,6.1,0,0,1-1281,1324.12Zm1.47,13.74c.62,0,1.17,0,1.71,0a.51.51,0,0,0,.36-.34,15.87,15.87,0,0,1,1.64-5.07,5.54,5.54,0,0,0-1.75-6.71,5.65,5.65,0,0,0-6.94.1,5.57,5.57,0,0,0-1.59,6.75,14.1,14.1,0,0,1,1.46,4.86c0,.14.18.39.29.4.62,0,1.25,0,1.92,0v-6.4a2.53,2.53,0,0,1,.08-.78c.34-1,.71-2,1.08-3a2.26,2.26,0,0,1,.33-.45c.13.24.21.36.27.5a11.58,11.58,0,0,1,1.15,5.83,22.23,22.23,0,0,0,0,2.45Zm-5,.52c-.13.46,0,.61.44.61q3,0,6.08,0c.44,0,.56-.17.43-.6Zm2.64-7.18v6.66l.66,0c0-2.12,0-4.19,0-6.26C-1281.2,1331.06-1281.5,1331.13-1281.87,1331.2Zm1.84,0c-.41-.08-.69-.12-.69.37,0,2,0,4,0,6.08,0,.06,0,.11.1.21l.57,0Zm-4.18,8.31-.1.21c.21.12.43.34.64.34,1.74,0,3.48,0,5.22,0,.24,0,.46-.24.69-.37l-.08-.19Zm1.73,2.21c-.1.81,0,1,.79,1h1.32c.76,0,.9-.19.75-1h-2.86Zm-.81-1.11c.91.91,3.78.89,4.47,0Zm1.47-10h1.75c-.39-.46-.09-1.3-.93-1.25S-1281.51,1330.14-1281.82,1330.61Zm0,12.58c.08.86.67.63,1.09.63s.5-.26.38-.63Z" transform="translate(1411.42 -1305.56)"/><text class="cls-1" transform="translate(80.87 63.41)">C<tspan class="cls-3" x="8.01" y="0">r</tspan><tspan class="cls-5" x="12.47" y="0">e</tspan><tspan class="cls-3" x="18.05" y="0">a</tspan><tspan x="23.46" y="0">t</tspan><tspan class="cls-6" x="27.82" y="0">i</tspan><tspan class="cls-12" x="30.77" y="0">v</tspan><tspan class="cls-5" x="36.05" y="0">e E</tspan><tspan class="cls-13" x="52.31" y="0">x</tspan><tspan x="58.3" y="0">cellence</tspan></text><text class="cls-2" transform="translate(22.25 78.89)">Unique designs th<tspan class="cls-14" x="85.5" y="0">a</tspan><tspan x="90.21" y="0">t stand out with originalit</tspan><tspan class="cls-15" x="209.83" y="0">y</tspan><tspan x="214.22" y="0">.</tspan></text><path d="M-752.28,1336.42c0-1.42,0-2.85,0-4.28,0-.1,0-.14-.13-.17l-2.3-.58a.67.67,0,0,1-.51-.74.71.71,0,0,1,.19-.41c.85-.92,1.7-1.84,2.54-2.77a2.5,2.5,0,0,1,.27-.29,1,1,0,0,1,.32-.19c.68-.19,1.36-.35,2-.53l6.26-1.68,2.05-.54.43-.11a.88.88,0,0,1,.28,0c.31.06.63.14.94.23l8.81,2.35c.35.1.71.17,1.06.28a.69.69,0,0,1,.33.19l2.82,3.07a.68.68,0,0,1-.34,1.14l-2.29.58c-.1,0-.12.07-.12.17v8.52a.73.73,0,0,1-.58.76l-5.34,1.46-5,1.39a1.51,1.51,0,0,1-.76,0l-8.44-2.31-1.92-.53a.73.73,0,0,1-.58-.76Zm10.81,6.78v-11.65l-.09.1c-.58.73-1.17,1.45-1.75,2.17a.71.71,0,0,1-.78.26l-6.93-1.76-.27-.06v8.13c0,.1,0,.12.12.14l9.08,2.5Zm10.84-10.94-.1,0-7.08,1.8a.71.71,0,0,1-.8-.27c-.58-.72-1.17-1.44-1.75-2.17a.47.47,0,0,1-.09-.1v11.65l.09,0,9.62-2.64c.09,0,.11-.07.11-.15v-8.12Zm-1.57-4.79v0l-8.26-2.21v2.87a.46.46,0,0,1-.36.48.5.5,0,0,1-.64-.5v-2.85l-8.26,2.21a.34.34,0,0,0,.11,0l8.39,2.21a1.19,1.19,0,0,0,.53,0l7.33-1.93Zm-7.76,3.08,0,.06L-738,1333c.05.06.09,0,.15,0l2.37-.6,7-1.77.51-.13-.06-.07c-.71-.78-1.43-1.56-2.14-2.35a.25.25,0,0,0-.3-.08l-8.53,2.25Zm-2,0-.16,0-3.36-.88-6-1.6a.16.16,0,0,0-.18,0c-.72.8-1.45,1.59-2.18,2.39l-.06.08.09,0,2.75.7,7,1.77c.08,0,.12,0,.16,0l1.7-2.09Z" transform="translate(1411.42 -1305.56)"/><text class="cls-1" transform="translate(619.94 63.42)">Easy Ca<tspan class="cls-16" x="40.47" y="0">r</tspan><tspan x="44.93" y="0">e Solutions</tspan></text><text class="cls-2" transform="translate(540.62 78.89)">L<tspan class="cls-3" x="7.34" y="0">o</tspan><tspan class="cls-5" x="12.89" y="0">w-maintenance solutions </tspan><tspan class="cls-3" x="132.3" y="0">f</tspan><tspan class="cls-5" x="135.14" y="0">or a hassle-free </tspan><tspan class="cls-10" x="207.39" y="0">e</tspan><tspan x="212.59" y="0">xperienc</tspan><tspan class="cls-3" x="252.76" y="0">e</tspan><tspan x="257.49" y="0">.</tspan></text><rect class="cls-17" width="1017.26" height="115.05"/></svg>