<svg xmlns="http://www.w3.org/2000/svg" viewBox="0 0 361.75 94.05"><defs><style>.cls-1,.cls-2,.cls-8{fill:#fff;}.cls-2{font-size:30.89px;font-family:Brand;letter-spacing:0.23em;}.cls-3{letter-spacing:0.13em;}.cls-4{letter-spacing:0.19em;}.cls-5{letter-spacing:0.21em;}.cls-6{letter-spacing:0.22em;}.cls-7{letter-spacing:0.23em;}.cls-8{font-size:13.24px;font-family:Ebrima;letter-spacing:0.08em;}</style></defs><g id="home_page" data-name="home page"><polygon class="cls-1" points="8.26 11.14 8.26 0.37 12.99 0.37 12.99 6.12 17.79 6.12 17.79 0.37 21.08 0.37 21.08 6.12 25.88 6.12 25.88 0.37 29.18 0.37 29.18 6.12 33.98 6.12 33.98 0.37 37.28 0.37 37.28 6.12 42.08 6.12 42.08 0.37 45.37 0.37 45.37 6.12 50.17 6.12 50.17 0.37 53.47 0.37 53.47 6.12 58.27 6.12 58.27 0.37 61.56 0.37 61.56 6.12 66.36 6.12 66.36 0.37 71.1 0.37 71.1 11.14 8.26 11.14"/><path d="M4229.23-494.27v10h-62.11v-10h4v5.76h5.53v-5.76h2.56v5.76h5.53v-5.76h2.57v5.76h5.53v-5.76h2.56v5.76h5.53v-5.76h2.57v5.76H4209v-5.76h2.57v5.76h5.53v-5.76h2.56v5.76h5.53v-5.76h4m.74-.73h-5.47v5.75h-4.07V-495h-4v5.75h-4.07V-495h-4v5.75h-4.07V-495h-4v5.75h-4.06V-495h-4v5.75h-4.07V-495h-4v5.75H4180V-495h-4v5.75h-4.06V-495h-5.47v11.51H4230V-495Z" transform="translate(-4158.5 495)"/><polygon class="cls-1" points="8.25 15.21 19.1 15.21 8.25 26.06 8.25 15.21"/><path d="M4176.72-479.43l-9.6,9.61v-9.61h9.6m1.77-.73h-12.1V-468l12.1-12.11Z" transform="translate(-4158.5 495)"/><polygon class="cls-1" points="8.25 75.16 8.25 64.1 19.31 75.16 8.25 75.16"/><path d="M4167.12-430l9.81,9.81h-9.81V-430m-.73-1.77v12.32h12.31l-12.31-12.32Z" transform="translate(-4158.5 495)"/><polygon class="cls-1" points="57.8 15.21 71.1 15.21 71.1 28.51 57.8 15.21"/><path d="M4229.24-479.43v12.06l-12.06-12.06h12.06m.73-.73h-14.55L4230-465.6v-14.56Z" transform="translate(-4158.5 495)"/><path class="cls-1" d="M4174.28-449.82l23.9-23.9,23.9,23.9-23.9,23.91Zm23.9,13.54,4-4h5.61v-5.61l4-4-4-4v-5.6h-5.6l-4-4-4,4h-5.61v5.61l-4,4,4,4v5.61h5.62Z" transform="translate(-4158.5 495)"/><path d="M4198.18-473.21l23.39,23.39-23.39,23.39-23.39-23.39,23.39-23.39m-4.12,13.45h-5.82v5.83l-3.6,3.59-.52.52.52.52,3.6,3.6v5.83h5.83l3.59,3.59.52.52.52-.52,3.59-3.59h5.83v-5.83l3.6-3.6.52-.52-.52-.52-3.6-3.6v-5.82h-5.82l-3.6-3.6-.52-.52-.52.52-3.6,3.6m4.12-14.48-24.42,24.42,24.42,24.43,24.42-24.43-24.42-24.42ZM4189-440.61V-446l-3.81-3.81,3.81-3.81V-459h5.39l3.82-3.82L4202-459h5.38v5.38l3.82,3.82-3.82,3.82v5.39H4202l-3.81,3.82-3.81-3.82Z" transform="translate(-4158.5 495)"/><path class="cls-1" d="M4198.25-419.84l2.74-2.74,27.23-27.24-2.81-2.8-27.16-27.18h10.65l20.7,20.71v18.34l-20.9,20.91Zm-13,0-18.46-18.46v-23.24L4185-479.8h13.1L4171-452.62l-2.81,2.8,27.23,27.24,2.74,2.74Z" transform="translate(-4158.5 495)"/><path d="M4208.75-479.43l20.49,20.49v18l-20.69,20.69h-9.42l2.12-2.11,24.42-24.43,2.55-2.55.52-.52-.52-.52-2.55-2.54-24.42-24.43-2.12-2.12h9.62m-11.52,0-2.12,2.12-24.42,24.43-2.55,2.54-.52.52.52.52,2.55,2.55,24.42,24.43,2.12,2.11h-11.86l-18.25-18.25v-22.92l18-18.05h12.07m11.82-.73h-24.19l-18.47,18.47v23.54l18.67,18.68h23.79L4230-440.6v-18.64l-20.92-20.92Zm-10.87,59.87-2.55-2.55-24.42-24.43-2.55-2.55,2.55-2.55,24.42-24.42,2.55-2.56,2.55,2.56,24.42,24.42,2.55,2.55-2.55,2.55-24.42,24.43-2.55,2.55Z" transform="translate(-4158.5 495)"/><polygon class="cls-1" points="57.59 75.16 71.1 61.65 71.1 75.16 57.59 75.16"/><path d="M4229.24-432.47v12.26H4217l12.26-12.26m.73-1.76-14.76,14.76H4230v-14.76Z" transform="translate(-4158.5 495)"/><polygon class="cls-1" points="37.52 50.4 34.46 50.4 34.46 47.34 32.3 45.18 34.46 43.02 34.46 39.97 37.51 39.97 39.67 37.8 41.84 39.97 44.89 39.97 44.89 43.02 47.05 45.18 44.89 47.35 44.89 50.4 41.84 50.4 39.67 52.56 37.52 50.4"/><path d="M4198.18-456.68l1.8,1.8.21.21H4203v2.84l.21.21,1.8,1.8-1.8,1.8-.21.21V-445h-2.84l-.22.21-1.79,1.8-1.79-1.8-.22-.21h-2.84v-2.85l-.22-.21-1.79-1.8,1.79-1.79.22-.22v-2.84h2.84l.21-.21,1.8-1.8m0-1-2.32,2.32h-3.27v3.27l-2.31,2.31,2.31,2.31v3.28h3.28l2.31,2.31,2.31-2.31h3.27v-3.27l2.32-2.32-2.32-2.31v-3.27h-3.27l-2.31-2.32Z" transform="translate(-4158.5 495)"/><path class="cls-1" d="M4166-401.32a7.17,7.17,0,0,1-7.16-7.16,7.12,7.12,0,0,1,2.1-5.07,7.11,7.11,0,0,1,5.06-2.09h52.79a6.88,6.88,0,0,0-3.77,6.13v2.07a6.88,6.88,0,0,0,3.77,6.12Z" transform="translate(-4158.5 495)"/><path d="M4217.55-415.28a7.26,7.26,0,0,0-2.87,5.77v2.07a7.25,7.25,0,0,0,2.87,5.76H4166a6.8,6.8,0,0,1-6.79-6.8,6.79,6.79,0,0,1,2-4.81,6.8,6.8,0,0,1,4.81-2h51.52m2.62-.73H4166a7.5,7.5,0,0,0-5.32,2.21,7.5,7.5,0,0,0-2.21,5.32,7.53,7.53,0,0,0,7.53,7.53h54.14a6.8,6.8,0,0,0,.9-.06,6.49,6.49,0,0,1-5.66-6.43v-2.07a6.5,6.5,0,0,1,5.66-6.44,6.8,6.8,0,0,0-.9-.06Z" transform="translate(-4158.5 495)"/><path class="cls-1" d="M4224.57-408a.73.73,0,0,1-.73-.73.74.74,0,0,1,.73-.74.74.74,0,0,1,.74.74A.74.74,0,0,1,4224.57-408Z" transform="translate(-4158.5 495)"/><path d="M4224.57-409.14a.38.38,0,0,1,.38.37.37.37,0,0,1-.38.37.36.36,0,0,1-.36-.37.37.37,0,0,1,.36-.37m0-.73a1.1,1.1,0,0,0-1.1,1.1,1.1,1.1,0,0,0,1.1,1.1,1.1,1.1,0,0,0,1.11-1.1,1.11,1.11,0,0,0-1.11-1.1Z" transform="translate(-4158.5 495)"/><path class="cls-1" d="M4224.57-403a5.78,5.78,0,0,1-5.78-5.78,5.78,5.78,0,0,1,5.78-5.79,5.79,5.79,0,0,1,5.79,5.79A5.79,5.79,0,0,1,4224.57-403Zm0-8.83a3.05,3.05,0,0,0-3,3.05,3.05,3.05,0,0,0,3,3,3.05,3.05,0,0,0,3.05-3A3.06,3.06,0,0,0,4224.57-411.81Z" transform="translate(-4158.5 495)"/><path d="M4224.57-414.19a5.43,5.43,0,0,1,5.42,5.42,5.43,5.43,0,0,1-5.42,5.43,5.43,5.43,0,0,1-5.42-5.43,5.43,5.43,0,0,1,5.42-5.42m0,8.83a3.41,3.41,0,0,0,3.41-3.41,3.41,3.41,0,0,0-3.41-3.4,3.41,3.41,0,0,0-3.4,3.4,3.41,3.41,0,0,0,3.4,3.41m0-9.56a6.15,6.15,0,0,0-6.15,6.15,6.15,6.15,0,0,0,6.15,6.16,6.16,6.16,0,0,0,6.16-6.16,6.15,6.15,0,0,0-6.16-6.15Zm0,8.83a2.68,2.68,0,0,1-2.67-2.68,2.68,2.68,0,0,1,2.67-2.67,2.68,2.68,0,0,1,2.68,2.67,2.68,2.68,0,0,1-2.68,2.68Z" transform="translate(-4158.5 495)"/><path class="cls-1" d="M4224.57-408a.73.73,0,0,1-.73-.73.74.74,0,0,1,.73-.74.74.74,0,0,1,.74.74A.74.74,0,0,1,4224.57-408Z" transform="translate(-4158.5 495)"/><path d="M4224.57-409.14a.38.38,0,0,1,.38.37.37.37,0,0,1-.38.37.36.36,0,0,1-.36-.37.37.37,0,0,1,.36-.37m0-.73a1.1,1.1,0,0,0-1.1,1.1,1.1,1.1,0,0,0,1.1,1.1,1.1,1.1,0,0,0,1.11-1.1,1.11,1.11,0,0,0-1.11-1.1Z" transform="translate(-4158.5 495)"/><path class="cls-1" d="M4224.57-408a.73.73,0,0,1-.73-.73.74.74,0,0,1,.73-.74.74.74,0,0,1,.74.74A.74.74,0,0,1,4224.57-408Z" transform="translate(-4158.5 495)"/><path d="M4224.57-409.14a.38.38,0,0,1,.38.37.37.37,0,0,1-.38.37.36.36,0,0,1-.36-.37.37.37,0,0,1,.36-.37m0-.73a1.1,1.1,0,0,0-1.1,1.1,1.1,1.1,0,0,0,1.1,1.1,1.1,1.1,0,0,0,1.11-1.1,1.11,1.11,0,0,0-1.11-1.1Z" transform="translate(-4158.5 495)"/><text class="cls-2" transform="translate(103.14 47.02)">I<tspan class="cls-3" x="16.09" y="0">J</tspan><tspan x="29.1" y="0">AZ </tspan><tspan class="cls-4" x="91.68" y="0">C</tspan><tspan class="cls-5" x="119.27" y="0">A</tspan><tspan x="144.78" y="0">RPE</tspan><tspan class="cls-6" x="214.35" y="0">T</tspan><tspan class="cls-7" x="235.94" y="0">S</tspan></text><text class="cls-8" transform="translate(103.14 73.16)">STEPS TO HEAVEN</text></g></svg>